<svg xmlns="http://www.w3.org/2000/svg" viewBox="0 0 64 64">
  <defs>
    <linearGradient id="background" x1="7" y1="4" x2="58" y2="62" gradientUnits="userSpaceOnUse">
      <stop stop-color="#252038"></stop>
      <stop offset="1" stop-color="#090a12"></stop>
    </linearGradient>
    <linearGradient id="body" x1="17" y1="10" x2="48" y2="56" gradientUnits="userSpaceOnUse">
      <stop stop-color="#fffdf8"></stop>
      <stop offset="1" stop-color="#bba6ff"></stop>
    </linearGradient>
  </defs>
  <rect width="64" height="64" rx="16" fill="url(#background)"></rect>
  <path fill="url(#body)" d="M32 9C19 9 11 19 11 32v19c0 3 3.5 4.5 6 2.2l5.4-4.9 4.5 4.5c2.5 2.5 7.7 2.5 10.2 0l4.5-4.5 5.4 4.9c2.5 2.3 6 .8 6-2.2V32C53 19 45 9 32 9Z"></path>
  <ellipse cx="25" cy="32" rx="3.5" ry="5" fill="#171827"></ellipse>
  <ellipse cx="39" cy="32" rx="3.5" ry="5" fill="#171827"></ellipse>
  <circle cx="26" cy="30.5" r="1" fill="#fff"></circle>
  <circle cx="40" cy="30.5" r="1" fill="#fff"></circle>
  <path d="M28 42c3 2 5 2 8 0" fill="none" stroke="#594b7f" stroke-linecap="round" stroke-width="2"></path>
</svg>
